<?xml version="1.0" encoding="iso-8859-1"?>
<!-- Generator: Adobe Illustrator 19.0.0, SVG Export Plug-In . SVG Version: 6.00 Build 0)  -->
<svg version="1.1" id="Capa_1" xmlns="http://www.w3.org/2000/svg" xmlns:xlink="http://www.w3.org/1999/xlink" x="0px" y="0px"
	 viewBox="0 0 512 512" style="enable-background:new 0 0 512 512;" xml:space="preserve">
<circle style="fill:#F9E7CD;" cx="256" cy="256" r="256"/>
<g>
	<circle style="fill:#FFC772;" cx="256" cy="258.372" r="130.612"/>
	<path style="fill:#FFC772;" d="M256.003,0.474L256.003,0.474c-5.768,0-10.444,4.676-10.444,10.444v89.129
		c0,5.768,4.676,10.444,10.444,10.444l0,0c5.768,0,10.444-4.676,10.444-10.444v-89.13C266.447,5.15,261.771,0.474,256.003,0.474z"/>
	<path style="fill:#FFC772;" d="M506.874,198.581L506.874,198.581c-1.337-5.611-6.969-9.075-12.581-7.737l-86.7,20.663
		c-5.611,1.337-9.075,6.969-7.737,12.581l0,0c1.337,5.611,6.969,9.075,12.581,7.737l86.7-20.663
		C504.746,209.824,508.211,204.192,506.874,198.581z"/>
	<path style="fill:#FFC772;" d="M458.079,16.98L458.079,16.98c-4.423-3.702-11.009-3.118-14.711,1.304l-93.743,111.982
		c-3.702,4.423-3.118,11.009,1.304,14.711l0,0c4.423,3.702,11.009,3.118,14.711-1.304l93.743-111.982
		C463.086,27.269,462.502,20.682,458.079,16.98z"/>
	<path style="fill:#FFC772;" d="M5.133,198.581L5.133,198.581c1.337-5.611,6.969-9.075,12.581-7.737l86.7,20.663
		c5.611,1.337,9.075,6.969,7.737,12.581l0,0c-1.337,5.611-6.969,9.075-12.581,7.737l-86.7-20.663
		C7.26,209.824,3.796,204.192,5.133,198.581z"/>
	<path style="fill:#FFC772;" d="M53.927,16.98L53.927,16.98c4.423-3.702,11.009-3.118,14.711,1.304l93.743,111.982
		c3.702,4.423,3.118,11.009-1.304,14.711l0,0c-4.423,3.702-11.009,3.118-14.711-1.304L52.623,31.692
		C48.921,27.269,49.504,20.682,53.927,16.98z"/>
</g>
<path style="fill:#73DDE3;" d="M511.993,258.371c-0.251,27.366-4.786,53.697-12.988,78.367
	c-33.813,101.825-129.829,175.261-243.001,175.261S46.815,438.563,13.002,336.738c-8.202-24.67-12.737-51.001-12.988-78.367H511.993
	L511.993,258.371z"/>
<path style="fill:#27D1CF;" d="M499.005,336.738c-10.261,30.898-26.248,59.183-46.707,83.592
	c-46.958,56.038-117.467,91.669-196.294,91.669S106.666,476.368,59.709,420.33c-20.459-24.409-36.446-52.694-46.707-83.592H499.005z
	"/>
<path style="fill:#13BFBE;" d="M452.298,420.33c-46.958,56.038-117.467,91.669-196.294,91.669S106.666,476.368,59.709,420.33
	H452.298z"/>
<g>
	<path style="fill:#4A5370;" d="M171.538,177.563c-4.328,0-7.837-3.509-7.837-7.837c0-12.099-9.843-21.942-21.942-21.942
		c-4.328,0-7.837-3.509-7.837-7.837c0-4.328,3.509-7.837,7.837-7.837c12.104,0,22.894,5.748,29.779,14.658
		c6.885-8.909,17.673-14.658,29.779-14.658c4.328,0,7.837,3.509,7.837,7.837c0,4.328-3.509,7.837-7.837,7.837
		c-12.099,0-21.942,9.843-21.942,21.942C179.374,174.054,175.866,177.563,171.538,177.563z"/>
	<path style="fill:#4A5370;" d="M365.34,229.773c-4.328,0-7.837-3.509-7.837-7.837c0-12.099-9.843-21.942-21.942-21.942
		c-4.328,0-7.837-3.509-7.837-7.837c0-4.328,3.509-7.837,7.837-7.837c12.104,0,22.894,5.748,29.779,14.658
		c6.885-8.909,17.673-14.658,29.779-14.658c4.328,0,7.837,3.509,7.837,7.837c0,4.328-3.509,7.837-7.837,7.837
		c-12.099,0-21.942,9.843-21.942,21.942C373.177,226.264,369.668,229.773,365.34,229.773z"/>
</g>
<g>
</g>
<g>
</g>
<g>
</g>
<g>
</g>
<g>
</g>
<g>
</g>
<g>
</g>
<g>
</g>
<g>
</g>
<g>
</g>
<g>
</g>
<g>
</g>
<g>
</g>
<g>
</g>
<g>
</g>
</svg>
